HIERARCHY
ROOT Hips
{
	OFFSET 0.000000 0.000000 0.000000 
	CHANNELS 6 Xposition Yposition Zposition Yrotation Zrotation Xrotation 
	JOINT Lumbar
	{
		OFFSET 0.000000 0.000000 0.000000 
		CHANNELS 3 Zrotation Xrotation Yrotation
		JOINT Neck
		{
			OFFSET 0.000000 0.445665 0.000000 
			CHANNELS 3 Zrotation Xrotation Yrotation
			End Site
			{
				OFFSET 0.000000 0.227535 0.000000 
			}
		}
		JOINT RightShoulder
		{
			OFFSET 0.019635 0.377685 0.194865 
			CHANNELS 3 Zrotation Xrotation Yrotation
			JOINT RightElbow
			{
				OFFSET 0.000000 -0.243375 0.000000 
				CHANNELS 2 Zrotation Yrotation
				JOINT RightWrist
				{
					OFFSET 0.000000 -0.264825 0.000000 
					CHANNELS 2 Zrotation Xrotation
					End Site
					{
						OFFSET 0.006600 -0.176220 0.000990 
					}
				}
			}
		}
		JOINT LeftShoulder
		{
			OFFSET 0.019635 0.377685 -0.194865 
			CHANNELS 3 Zrotation Xrotation Yrotation
			JOINT LeftElbow
			{
				OFFSET 0.000000 -0.243375 0.000000 
				CHANNELS 2 Zrotation Yrotation
				JOINT LeftWrist
				{
					OFFSET 0.000000 -0.264825 0.000000 
					CHANNELS 2 Zrotation Xrotation
					End Site
					{
						OFFSET 0.006600 -0.176220 -0.000990 
					}
				}
			}
		}
	}
	JOINT RightHip
	{
		OFFSET 0.052140 -0.069960 0.075570 
		CHANNELS 3 Zrotation Xrotation Yrotation
		JOINT RightKnee
		{
			OFFSET 0.000000 -0.402270 0.000000 
			CHANNELS 1 Zrotation
			JOINT RightAnkle
			{
				OFFSET 0.000000 -0.404085 0.000000 
				CHANNELS 3 Zrotation Xrotation Yrotation
				End Site
				{
					OFFSET 0.204105 -0.089430 0.008415 
				}
			}
		}
	}
	JOINT LeftHip
	{
		OFFSET 0.052140 -0.069960 -0.075570 
		CHANNELS 3 Zrotation Xrotation Yrotation
		JOINT LeftKnee
		{
			OFFSET 0.000000 -0.402270 0.000000 
			CHANNELS 1 Zrotation
			JOINT LeftAnkle
			{
				OFFSET 0.000000 -0.404085 0.000000 
				CHANNELS 3 Zrotation Xrotation Yrotation
				End Site
				{
					OFFSET 0.204105 -0.089430 -0.008415 
				}
			}
		}
	}
}
MOTION
Frames: 29
Frame Time: 0.02
0 0.95578 -0 182.93972 0 -3.21014 1.99715 3.06542 -7.33233 -39.13378 4.81629 4.15836 -5.99304 -76.7171 -79.3569 21.28543 79.34223 -20.0861 -2.53326 4.70446 64.65054 69.37449 23.34906 -78.37994 -31.21851 2.5892 -4.0766 3.62368 5.01715 -7.12832 -2.04683 -2.79399 -6.81283 -2.59314 4.97866 3.46395 -6.78534 0.51867 1.63115 0.44617
-0.00011 0.95577 5e-05 182.91753 0 -3.21292 1.99271 3.06831 -7.31733 -39.1186 4.80083 4.16666 -5.96513 -76.7008 -79.37556 21.29985 79.34428 -20.04455 -2.5349 4.65668 64.6394 69.43942 23.34579 -78.43343 -31.20008 2.61083 -4.07158 3.62644 5.10454 -7.14565 -2.04114 -2.8017 -6.87197 -2.60375 4.97688 3.46234 -6.78987 0.53829 1.63475 0.46977
-0.00023 0.95576 0.00011 182.89546 0 -3.21575 1.98823 3.07131 -7.30246 -39.10351 4.78527 4.17496 -5.93704 -76.68438 -79.39371 21.31423 79.34636 -20.00324 -2.53653 4.60909 64.62841 69.50384 23.34244 -78.48701 -31.18129 2.63224 -4.06656 3.6292 5.19119 -7.16299 -2.03547 -2.8094 -6.93059 -2.61435 4.97517 3.46096 -6.79433 0.55781 1.63828 0.49297
-0.00034 0.95574 0.00016 182.87372 0 -3.21864 1.98378 3.07446 -7.28804 -39.08881 4.76936 4.18342 -5.90778 -76.66757 -79.40986 21.32836 79.34831 -19.96315 -2.53796 4.56211 64.61783 69.56656 23.3385 -78.54176 -31.16061 2.65265 -4.06177 3.6319 5.27572 -7.18004 -2.02986 -2.81719 -6.98759 -2.62507 4.9735 3.46004 -6.79849 0.57713 1.64169 0.51543
-0.00045 0.95573 0.00021 182.85031 0 -3.22102 1.97946 3.07645 -7.27134 -39.07227 4.75556 4.19111 -5.88451 -76.65314 -79.43643 21.34354 79.35066 -19.91739 -2.54028 4.5123 64.60503 69.63793 23.33738 -78.59065 -31.14962 2.67796 -4.05608 3.63479 5.37151 -7.198 -2.02396 -2.82458 -7.05306 -2.63525 4.97131 3.45621 -6.80415 0.59753 1.64587 0.54255
-0.00057 0.95572 0.00027 182.8304 0 -3.22458 1.97469 3.08112 -7.2594 -39.05948 4.73714 4.20039 -5.84874 -76.63347 -79.44105 21.35668 79.35236 -19.88312 -2.54081 4.46825 64.59694 69.69119 23.33049 -78.65164 -31.11834 2.69314 -4.05206 3.6374 5.44336 -7.21444 -2.01865 -2.83275 -7.10061 -2.6465 4.97042 3.45883 -6.80671 0.61562 1.64831 0.5593
-0.00073 0.9557 0.00037 182.82062 0 -3.23083 1.96988 3.09149 -7.26167 -39.05833 4.70664 4.21468 -5.77478 -76.60013 -79.38176 21.36288 79.3504 -19.88564 -2.53542 4.44154 64.60179 69.69203 23.30572 -78.75164 -31.02653 2.67749 -4.05489 3.63826 5.44866 -7.22357 -2.01504 -2.84376 -7.09755 -2.66153 4.97176 3.47731 -6.79999 0.62759 1.64684 0.55102
-0.0009 0.95569 0.00049 182.81444 0 -3.23835 1.96433 3.10485 -7.26866 -39.06064 4.67142 4.23045 -5.6888 -76.56132 -79.30076 21.36744 79.34797 -19.89886 -2.52836 4.42021 64.61128 69.67513 23.27567 -78.86325 -30.91492 2.65207 -4.05899 3.63908 5.42976 -7.23177 -2.012 -2.85545 -7.07663 -2.67745 4.9747 3.50255 -6.7903 0.63715 1.64345 0.53162
-0.00105 0.95567 0.00059 182.80606 0 -3.24567 1.95844 3.11802 -7.27268 -39.06061 4.63773 4.24522 -5.61058 -76.52443 -79.23188 21.37339 79.34713 -19.90386 -2.52276 4.39561 64.61881 69.66782 23.24902 -78.96563 -30.81526 2.63298 -4.06107 3.64048 5.42242 -7.24242 -2.00863 -2.86634 -7.06452 -2.69256 4.97771 3.52619 -6.7824 0.64773 1.64036 0.51496
-0.00123 0.95565 0.00071 182.79935 0 -3.25148 1.95569 3.1264 -7.27975 -39.06413 4.6062 4.2615 -5.5226 -76.48989 -79.15388 21.37593 79.34107 -19.9229 -2.51441 4.37504 64.62616 69.65371 23.21731 -79.08336 -30.70334 2.60605 -4.06929 3.63928 5.41328 -7.24445 -2.00554 -2.87919 -7.04928 -2.70968 4.97718 3.54419 -6.77251 0.65882 1.63968 0.50806
-0.00136 0.95565 0.00081 182.79091 0 -3.26067 1.94589 3.14526 -7.2821 -39.06068 4.56962 4.27484 -5.45219 -76.44922 -79.08922 21.38605 79.34504 -19.9154 -2.51114 4.34666 64.63441 69.65002 23.19593 -79.17353 -30.61199 2.59294 -4.06498 3.64377 5.40141 -7.2643 -2.002 -2.88823 -7.03659 -2.72243 4.98462 3.57478 -6.76622 0.66806 1.63351 0.47819
-0.00138 0.95567 0.0009 182.76923 0 -3.27931 1.91959 3.19412 -7.26607 -39.04046 4.51519 4.2809 -5.43178 -76.39208 -79.07028 21.41082 79.38315 -19.83073 -2.52453 4.30118 64.64885 69.67542 23.19614 -79.17077 -30.58415 2.6221 -4.02621 3.66149 5.39407 -7.33254 -1.9971 -2.88569 -7.03302 -2.72633 5.01187 3.645 -6.76903 0.67471 1.61278 0.38763
-0.00134 0.95571 0.00098 182.74717 0 -3.30121 1.88569 3.25308 -7.24593 -39.01242 4.45671 4.28368 -5.42929 -76.32898 -79.06436 21.4451 79.43022 -19.71919 -2.54269 4.2465 64.66305 69.71263 23.20894 -79.14262 -30.57707 2.66529 -3.97479 3.68541 5.38362 -7.41879 -1.99171 -2.87943 -7.03302 -2.72517 5.04745 3.72638 -6.77579 0.6792 1.58656 0.27432
-0.00131 0.95575 0.00104 182.73015 0 -3.32139 1.85346 3.30623 -7.23035 -38.98584 4.40346 4.28721 -5.42016 -76.26934 -79.05072 21.47866 79.46899 -19.62083 -2.55721 4.19228 64.67427 69.74717 23.22078 -79.13506 -30.55957 2.70075 -3.92877 3.7081 5.37061 -7.49764 -1.98654 -2.87548 -7.03298 -2.72408 5.0804 3.79842 -6.78183 0.68347 1.56277 0.17141
-0.00133 0.95578 0.00121 182.6924 0 -3.34276 1.8288 3.36461 -7.20342 -38.96842 4.33597 4.29407 -5.40616 -76.20685 -79.04589 21.49453 79.52546 -19.51891 -2.57783 4.15416 64.69902 69.76996 23.21039 -79.08911 -30.54661 2.74108 -3.88394 3.72406 5.37371 -7.57373 -1.98145 -2.869 -7.02586 -2.73243 5.10846 3.8889 -6.78346 0.69284 1.53922 0.06788
-0.00125 0.95582 0.00115 182.69808 0 -3.36226 1.78651 3.41446 -7.1993 -38.92975 4.29696 4.29301 -5.40435 -76.14831 -79.02363 21.55258 79.54738 -19.41769 -2.58698 4.08001 64.69508 69.81992 23.25177 -79.11768 -30.52805 2.77538 -3.834 3.75555 5.34264 -7.65912 -1.97602 -2.86683 -7.03431 -2.71992 5.14874 3.94333 -6.79495 0.69096 1.51386 -0.03964
-0.00088 0.95591 0.00049 182.82052 0 -3.377 1.69802 3.43833 -7.25722 -38.83667 4.34002 4.2725 -5.45129 -76.10748 -78.97027 21.69978 79.47034 -19.32682 -2.5627 3.9111 64.61492 69.94455 23.41326 -79.35091 -30.50034 2.78423 -3.76979 3.82804 5.21972 -7.77183 -1.97003 -2.87819 -7.08704 -2.65085 5.22001 3.89716 -6.83547 0.65984 1.48499 -0.15224
-0.00041 0.956 -0.00041 182.98723 0 -3.38952 1.59195 3.4533 -7.33851 -38.722 4.41141 4.24382 -5.50577 -76.06977 -78.89464 21.89444 79.35876 -19.23736 -2.52689 3.70605 64.50509 70.09543 23.63068 -79.66072 -30.46429 2.78767 -3.70145 3.91603 5.06235 -7.8921 -1.96369 -2.8939 -7.15497 -2.56094 5.30344 3.81397 -6.88535 0.61724 1.45446 -0.26805
1e-05 0.95609 -0.00122 183.13584 0 -3.40226 1.49351 3.47222 -7.41048 -38.61569 4.46829 4.2178 -5.54471 -76.02722 -78.81684 22.0829 79.26354 -19.14576 -2.49666 3.51551 64.40715 70.23311 23.83481 -79.94097 -30.42459 2.79707 -3.63712 3.99714 4.9197 -8.00499 -1.9573 -2.90715 -7.21462 -2.48078 5.38172 3.74663 -6.92901 0.57904 1.42456 -0.38261
0.00043 0.95619 -0.00192 183.27612 0 -3.41847 1.39627 3.49164 -7.47715 -38.51534 4.5321 4.19612 -5.63753 -75.99923 -78.79389 22.20407 79.16468 -19.05878 -2.46489 3.33153 64.31681 70.37781 23.98595 -80.20063 -30.41676 2.79184 -3.56338 4.0777 4.78077 -8.13533 -1.95165 -2.92228 -7.28028 -2.39952 5.45857 3.68391 -6.98075 0.5442 1.39495 -0.4972
0.00089 0.95627 -0.00291 183.44402 0 -3.42686 1.29251 3.5081 -7.56003 -38.39742 4.58804 4.1635 -5.61704 -75.94131 -78.64811 22.48 79.06653 -18.96384 -2.43385 3.12695 64.20251 70.51239 24.26336 -80.51864 -30.34061 2.81606 -3.50838 4.16311 4.62607 -8.23066 -1.94452 -2.93459 -7.33685 -2.31536 5.54132 3.6025 -7.01829 0.49972 1.36448 -0.61202
0.00144 0.95625 -0.00459 183.67955 0 -3.41419 1.17474 3.51567 -7.68562 -38.23724 4.6174 4.10255 -5.30403 -75.80336 -78.19444 23.14302 78.9663 -18.83879 -2.40496 2.8618 64.03805 70.62511 24.85305 -81.00676 -30.07483 2.91846 -3.50661 4.25712 4.43531 -8.22927 -1.93232 -2.93794 -7.3658 -2.23087 5.63612 3.47938 -7.0105 0.43085 1.33161 -0.72821
0.00203 0.95621 -0.00656 183.94105 0 -3.39368 1.05114 3.52109 -7.82605 -38.0599 4.63753 4.03092 -4.87233 -75.63447 -77.61253 23.96597 78.87032 -18.70751 -2.37768 2.57995 63.84855 70.7237 25.57262 -81.54683 -29.74099 3.05103 -3.5238 4.35563 4.22996 -8.19199 -1.91881 -2.93833 -7.3848 -2.14367 5.73664 3.33844 -6.98882 0.35278 1.29805 -0.84418
0.00262 0.95618 -0.00842 184.18906 0 -3.37675 0.93045 3.5293 -7.95728 -37.88989 4.6605 3.96421 -4.4805 -75.4777 -77.07296 24.73378 78.78043 -18.58398 -2.35138 2.31346 63.66514 70.82134 26.24689 -82.04389 -29.44021 3.17322 -3.53208 4.45266 4.03208 -8.16984 -1.90665 -2.94015 -7.40762 -2.05608 5.83532 3.20514 -6.97601 0.27937 1.26515 -0.95908
0.00317 0.95615 -0.01022 184.44528 0 -3.35973 0.80796 3.52939 -8.09967 -37.72135 4.69002 3.89681 -4.14898 -75.32968 -76.60199 25.42708 78.65516 -18.43869 -2.31739 2.01122 63.50427 70.95368 26.86297 -82.62174 -29.13031 3.28296 -3.5415 4.54779 3.82989 -8.15286 -1.89148 -2.94175 -7.43409 -1.97481 5.9312 3.07278 -6.95273 0.20364 1.23074 -1.07883
0.00379 0.95611 -0.0122 184.69057 0 -3.34099 0.68816 3.54619 -8.22206 -37.54562 4.70354 3.82857 -3.66276 -75.15551 -75.95537 26.3156 78.60543 -18.33855 -2.30004 1.78206 63.28933 71.0067 27.63315 -83.04738 -28.82316 3.42363 -3.55303 4.64781 3.63313 -8.11662 -1.88205 -2.94305 -7.45021 -1.87977 6.03415 2.93435 -6.94786 0.13059 1.19932 -1.18862
0.00463 0.95605 -0.01458 184.89429 0 -3.32018 0.57639 3.60812 -8.28534 -37.35701 4.67345 3.75951 -2.78519 -74.92059 -74.87685 27.68183 78.76038 -18.35353 -2.32767 1.74146 62.94445 70.87102 28.77349 -82.99855 -28.54236 3.66205 -3.56646 4.75979 3.45944 -8.0346 -1.89057 -2.94445 -7.44176 -1.7494 6.15483 2.78644 -6.99714 0.0682 1.1764 -1.26881
0.00554 0.95597 -0.01714 185.08699 0 -3.29778 0.46773 3.68732 -8.32791 -37.16118 4.62777 3.69022 -1.7548 -74.65929 -73.62172 29.2433 78.99205 -18.41631 -2.37222 1.77863 62.54358 70.6498 30.06884 -82.8016 -28.26666 3.92724 -3.58125 4.87658 3.29101 -7.93463 -1.90459 -2.94562 -7.42299 -1.60485 6.28243 2.63254 -7.06555 0.0087 1.15647 -1.33939
0.00642 0.9559 -0.01963 185.28757 0 -3.27566 0.35828 3.75959 -8.38005 -36.96718 4.5902 3.62182 -0.78982 -74.40802 -72.43372 30.72927 79.19049 -18.46439 -2.40938 1.79148 62.15996 70.45128 31.30801 -82.69994 -27.98688 4.16689 -3.59497 4.99137 3.11744 -7.84379 -1.9149 -2.94673 -7.40765 -1.46578 6.40704 2.47983 -7.12504 -0.05273 1.13513 -1.41567
